<svg width="50" height="50" viewBox="0 0 50 50" fill="none" xmlns="http://www.w3.org/2000/svg">
    <path d="M45.7143 25L28.5714 19.6429V8.92857C28.5714 5.58036 25.8929 2.85714 22.5 2.85714C19.1071 2.85714 16.4286 5.58036 16.4286 8.92857V19.6429L4.28571 25L16.4286 30.3571V41.0714C16.4286 44.4196 19.1071 47.1429 22.5 47.1429C25.8929 47.1429 28.5714 44.4196 28.5714 41.0714V30.3571L45.7143 25Z" fill="#FDE2F3"/>
    <path d="M45.7143 25L28.5714 19.6429M28.5714 19.6429V8.92857C28.5714 5.58036 25.8929 2.85714 22.5 2.85714C19.1071 2.85714 16.4286 5.58036 16.4286 8.92857V19.6429M28.5714 19.6429L16.4286 19.6429M4.28571 25L16.4286 19.6429M16.4286 30.3571L4.28571 25L16.4286 19.6429M16.4286 30.3571V41.0714C16.4286 44.4196 19.1071 47.1429 22.5 47.1429C25.8929 47.1429 28.5714 44.4196 28.5714 41.0714V30.3571L45.7143 25L16.4286 30.3571Z" stroke="#2A2F4F" stroke-width="2"/>
</svg> 